# xmcd
#
# Track frame offsets:
#	150
#	12663
#	26324
#	41421
#	57763
#	79967
#	95226
#	112682
#	127593
#	143001
#	169252
#	187127
#	214001
#
# Disc length: 4734 seconds
# Revision: 0
# Processed by: cddbd v1.5.2PL0 Copyright (c) Steve Scherf et al.
# Submitted via: dBpowerAMP V12.0
#
DISCID=a8127c0d
DTITLE=Various Artist - Heartstrings
DYEAR=2015
DGENRE=Country
TTITLE0=Trinity River Band - You Can't Walk All Over Me
TTITLE1=Trinity River Band - Heartstrings
TTITLE2=Trinity River Band - Rusty Old American Dream
TTITLE3=Trinity River Band - Going Down Hard
TTITLE4=Trinity River Band featuring Mark Johnson - Tell Me Darlin'
TTITLE5=Trinity River Band - Mindbender
TTITLE6=Trinity River Band featuring Marty Raybon - Fences
TTITLE7=Trinity River Band - How Blue
TTITLE8=Trinity River Band - Give God the Power
TTITLE9=Trinity River Band - Where Are You Tonight, I Wonder
TTITLE10=Trinity River Band - Blue Mandolin
TTITLE11=Trinity River Band - Only Here for a Little While
TTITLE12=DATA
EXTD=
EXTT0=
EXTT1=
EXTT2=
EXTT3=
EXTT4=
EXTT5=
EXTT6=
EXTT7=
EXTT8=
EXTT9=
EXTT10=
EXTT11=
EXTT12=
PLAYORDER=
